<svg xmlns="http://www.w3.org/2000/svg" xmlns:xlink="http://www.w3.org/1999/xlink" viewBox="0 0 187.34 202.34"><defs><style>.cls-1,.cls-4,.cls-5,.cls-6{fill:none;}.cls-2,.cls-3{opacity:0.6;isolation:isolate;}.cls-2{fill:url(#Unbenannter_Verlauf_2);}.cls-3{fill:url(#Unbenannter_Verlauf_2-2);}.cls-4{stroke:#008d36;}.cls-4,.cls-5,.cls-6{stroke-miterlimit:10;stroke-width:13.24px;}.cls-5{stroke:#fff;}.cls-6{stroke:#39a935;}.cls-7{fill:#fff;}.cls-8{fill:#1c1c1c;}.cls-9{fill:url(#SVGID_0000002255967371654060010);}</style><linearGradient id="Unbenannter_Verlauf_2" x1="-8366.62" y1="-39906.75" x2="-8319.12" y2="-39906.75" gradientTransform="matrix(1, 0, 0, -1, 8366.62, -39806)" gradientUnits="userSpaceOnUse"><stop offset="0" stop-color="#fff"/><stop offset="0.09" stop-color="#fff" stop-opacity="0.94"/><stop offset="0.27" stop-color="#fff" stop-opacity="0.8"/><stop offset="0.51" stop-color="#fff" stop-opacity="0.56"/><stop offset="0.8" stop-color="#fff" stop-opacity="0.23"/><stop offset="1" stop-color="#fff" stop-opacity="0"/></linearGradient><linearGradient id="Unbenannter_Verlauf_2-2" x1="-8265.37" y1="-39906.75" x2="-8236.87" y2="-39906.75" xlink:href="#Unbenannter_Verlauf_2"/><pattern id="SVGID_0000002255967371654060010" data-name="SVGID 0000002255967371654060010" width="188.2" height="201.5" patternTransform="translate(-2810.89 15364.02) rotate(-45) scale(1.26)" patternUnits="userSpaceOnUse" viewBox="0 0 188.2 201.5"><rect class="cls-1" width="188.2" height="201.5"/><rect class="cls-1" width="188.2" height="201.5"/><rect class="cls-1" width="188.2" height="201.5"/><rect class="cls-2" width="47.5" height="201.5"/><rect class="cls-3" x="101.2" width="28.5" height="201.5"/></pattern></defs><g id="Layer_2" data-name="Layer 2"><g id="Basic_UI" data-name="Basic UI"><g id="Ebene_2" data-name="Ebene 2"><g id="Background"><path class="cls-4" d="M6.62,21.52h34.8v34.8H6.62Zm0,139.3h34.8v34.9H6.62Zm34.8-104.5h34.8v34.8H41.42Zm0,69.7h34.8v34.8H41.42Zm34.9-34.8h34.8V126H76.32Zm34.8-34.9h34.8v34.8h-34.8Zm0,69.7h34.8v34.8h-34.8Zm34.8-104.5h34.8v34.8h-34.8V21.52Zm0,139.3h34.8v34.8h-34.8Z"/><path class="cls-4" d="M6.62,14h34.8v34.8H6.62Zm0,139.3h34.8v34.8H6.62Zm34.8-104.4h34.8v34.8H41.42Zm0,69.6h34.8v34.8H41.42Zm34.9-34.8h34.8v34.8H76.32Zm34.8-34.8h34.8v34.8h-34.8Zm0,69.6h34.8v34.8h-34.8ZM145.92,14h34.8v34.8h-34.8Zm0,139.3h34.8v34.8h-34.8Z"/><path class="cls-4" d="M6.62,6.62h34.8v34.8H6.62Zm0,139.3h34.8v34.8H6.62Zm34.8-104.5h34.8v34.8H41.42Zm0,69.6h34.8v34.8H41.42Zm34.9-34.8h34.8V111H76.32Zm34.8-34.8h34.8v34.8h-34.8Zm0,69.6h34.8v34.8h-34.8Zm34.8-104.4h34.8v34.8h-34.8Zm0,139.3h34.8v34.8h-34.8Z"/><path class="cls-5" d="M6.62,7.52h34.8v34.8H6.62Zm0,139.3h34.8v34.8H6.62Zm34.8-104.5h34.8v34.8H41.42Zm0,69.7h34.8v34.8H41.42Zm34.9-34.8h34.8V112H76.32Zm34.8-34.9h34.8v34.8h-34.8Zm0,69.7h34.8v34.8h-34.8Zm34.8-104.5h34.8v34.8h-34.8Zm0,139.3h34.8v34.8h-34.8Z"/><path class="cls-6" d="M6.62,6.62h34.8v34.8H6.62Zm0,139.3h34.8v34.8H6.62Zm34.8-104.5h34.8v34.8H41.42Zm0,69.6h34.8v34.8H41.42Zm34.9-34.8h34.8V111H76.32Zm34.8-34.8h34.8v34.8h-34.8Zm0,69.6h34.8v34.8h-34.8Zm34.8-104.4h34.8v34.8h-34.8Zm0,139.3h34.8v34.8h-34.8Z"/><path class="cls-7" d="M7.12,7h34.8v34.8H7.12Zm0,139.3h34.8v34.8H7.12Zm34.8-104.4h34.8v34.8H41.92Zm0,69.6h34.8v34.8H41.92Zm34.8-34.8h34.8v34.8H76.72Zm34.8-34.8h34.8v34.8h-34.8Zm0,69.6h34.8v34.8h-34.8ZM146.42,7h34.8v34.8h-34.8Zm0,139.3h34.8v34.8h-34.8Z"/><path class="cls-8" d="M6.62,6.62h34.8v34.8H6.62Zm0,139.3h34.8v34.8H6.62Zm34.8-104.5h34.8v34.8H41.42Zm0,69.6h34.8v34.8H41.42Zm34.9-34.8h34.8V111H76.32Zm34.8-34.8h34.8v34.8h-34.8Zm0,69.6h34.8v34.8h-34.8Zm34.8-104.4h34.8v34.8h-34.8Zm0,139.3h34.8v34.8h-34.8Z"/><path class="cls-9" d="M6.62,6.62h34.8v34.8H6.62Zm0,139.3h34.8v34.8H6.62Zm34.8-104.5h34.8v34.8H41.42Zm0,69.6h34.8v34.8H41.42Zm34.9-34.8h34.8V111H76.32Zm34.8-34.8h34.8v34.8h-34.8Zm0,69.6h34.8v34.8h-34.8Zm34.8-104.4h34.8v34.8h-34.8Zm0,139.3h34.8v34.8h-34.8Z"/></g></g></g></g></svg>