<svg xmlns="http://www.w3.org/2000/svg" xmlns:xlink="http://www.w3.org/1999/xlink" viewBox="0 0 185.84 200.64"><defs><style>.cls-1,.cls-4,.cls-5,.cls-6{fill:none;}.cls-2,.cls-3{opacity:0.6;isolation:isolate;}.cls-2{fill:url(#Unbenannter_Verlauf_2);}.cls-3{fill:url(#Unbenannter_Verlauf_2-2);}.cls-4{stroke:#bd1622;}.cls-4,.cls-5,.cls-6{stroke-miterlimit:10;stroke-width:13.24px;}.cls-5{stroke:#fff;}.cls-6{stroke:#e20613;}.cls-7{fill:#fff;}.cls-8{fill:#1c1c1c;}.cls-9{fill:url(#SVGID_0000002255967371654060010);}</style><linearGradient id="Unbenannter_Verlauf_2" x1="-8366.62" y1="-39906.75" x2="-8319.12" y2="-39906.75" gradientTransform="matrix(1, 0, 0, -1, 8366.62, -39806)" gradientUnits="userSpaceOnUse"><stop offset="0" stop-color="#fff"/><stop offset="0.09" stop-color="#fff" stop-opacity="0.94"/><stop offset="0.27" stop-color="#fff" stop-opacity="0.8"/><stop offset="0.51" stop-color="#fff" stop-opacity="0.56"/><stop offset="0.8" stop-color="#fff" stop-opacity="0.23"/><stop offset="1" stop-color="#fff" stop-opacity="0"/></linearGradient><linearGradient id="Unbenannter_Verlauf_2-2" x1="-8265.37" y1="-39906.75" x2="-8236.87" y2="-39906.75" xlink:href="#Unbenannter_Verlauf_2"/><pattern id="SVGID_0000002255967371654060010" data-name="SVGID 0000002255967371654060010" width="188.2" height="201.5" patternTransform="translate(-3022.64 15229.55) rotate(-45) scale(1.26)" patternUnits="userSpaceOnUse" viewBox="0 0 188.2 201.5"><rect class="cls-1" width="188.2" height="201.5"/><rect class="cls-1" width="188.2" height="201.5"/><rect class="cls-1" width="188.2" height="201.5"/><rect class="cls-2" width="47.5" height="201.5"/><rect class="cls-3" x="101.2" width="28.5" height="201.5"/></pattern></defs><g id="Layer_2" data-name="Layer 2"><g id="Basic_UI" data-name="Basic UI"><g id="Ebene_2" data-name="Ebene 2"><g id="Background"><path class="cls-4" d="M6.62,21.52h34.5V56H6.62Zm0,138h34.5V194H6.62ZM41.12,56h34.5v34.5H41.12Zm0,69h34.5v34.5H41.12Zm34.5-34.5h34.5V125H75.62ZM110.12,56h34.5v34.5h-34.5Zm0,69h34.5v34.5h-34.5Zm34.6-103.6h34.5v34.5h-34.5V21.42Zm0,138.1h34.5V194h-34.5Z"/><path class="cls-4" d="M6.62,14h34.5v34.5H6.62Zm0,138.1h34.5v34.5H6.62Zm34.5-103.5h34.5v34.5H41.12Zm0,69h34.5v34.5H41.12Zm34.5-34.5h34.5v34.5H75.62Zm34.5-34.5h34.5v34.5h-34.5Zm0,69h34.5v34.5h-34.5ZM144.72,14h34.5v34.5h-34.5Zm0,138.1h34.5v34.5h-34.5Z"/><path class="cls-4" d="M6.62,6.62h34.5v34.5H6.62Zm0,138.1h34.5v34.5H6.62Zm34.5-103.6h34.5v34.6H41.12Zm0,69.1h34.5v34.5H41.12Zm34.5-34.5h34.5v34.5H75.62Zm34.5-34.6h34.5v34.6h-34.5Zm0,69.1h34.5v34.5h-34.5Zm34.6-103.6h34.5v34.5h-34.5Zm0,138.1h34.5v34.5h-34.5Z"/><path class="cls-5" d="M6.62,7.62h34.5v34.5H6.62Zm0,138h34.5v34.5H6.62Zm34.5-103.5h34.5v34.5H41.12Zm0,69h34.5v34.5H41.12Zm34.5-34.5h34.5v34.5H75.62Zm34.5-34.5h34.5v34.5h-34.5Zm0,69h34.5v34.5h-34.5Zm34.6-103.5h34.5v34.5h-34.5Zm0,138h34.5v34.5h-34.5Z"/><path class="cls-6" d="M6.62,6.62h34.5v34.5H6.62Zm0,138.1h34.5v34.5H6.62Zm34.5-103.6h34.5v34.6H41.12Zm0,69.1h34.5v34.5H41.12Zm34.5-34.5h34.5v34.5H75.62Zm34.5-34.6h34.5v34.6h-34.5Zm0,69.1h34.5v34.5h-34.5Zm34.6-103.6h34.5v34.5h-34.5Zm0,138.1h34.5v34.5h-34.5Z"/><path class="cls-7" d="M7.12,7.12h34.5v34.5H7.12Zm0,138h34.5v34.5H7.12Zm34.5-103.5h34.5v34.5H41.62Zm0,69h34.5v34.5H41.62Zm34.5-34.5h34.5v34.5H76.12Zm34.5-34.5h34.5v34.5h-34.5Zm0,69h34.5v34.5h-34.5Zm34.5-103.5h34.5v34.5h-34.5Zm0,138h34.5v34.5h-34.5Z"/><path class="cls-8" d="M6.62,6.62h34.5v34.5H6.62Zm0,138.1h34.5v34.5H6.62Zm34.5-103.6h34.5v34.6H41.12Zm0,69.1h34.5v34.5H41.12Zm34.5-34.5h34.5v34.5H75.62Zm34.5-34.6h34.5v34.6h-34.5Zm0,69.1h34.5v34.5h-34.5Zm34.6-103.6h34.5v34.5h-34.5Zm0,138.1h34.5v34.5h-34.5Z"/><path class="cls-9" d="M6.62,6.62h34.5v34.5H6.62Zm0,138.1h34.5v34.5H6.62Zm34.5-103.6h34.5v34.6H41.12Zm0,69.1h34.5v34.5H41.12Zm34.5-34.5h34.5v34.5H75.62Zm34.5-34.6h34.5v34.6h-34.5Zm0,69.1h34.5v34.5h-34.5Zm34.6-103.6h34.5v34.5h-34.5Zm0,138.1h34.5v34.5h-34.5Z"/></g></g></g></g></svg>